<mxfile host="app.diagrams.net" modified="2024-03-13T11:41:07.523Z" agent="Mozilla/5.0 (Windows NT 10.0; Win64; x64) AppleWebKit/537.36 (KHTML, like Gecko) Chrome/122.0.0.0 Safari/537.36" etag="evReDj1Ur53bwxagC2b5" version="24.0.5" type="device">
  <diagram name="PÃ¡gina-1" id="vRk5Z54dWRwBmzAxExES">
    <mxGraphModel dx="1195" dy="652" grid="1" gridSize="10" guides="1" tooltips="1" connect="1" arrows="1" fold="1" page="1" pageScale="1" pageWidth="827" pageHeight="1169" math="0" shadow="0">
      <root>
        <mxCell id="0" />
        <mxCell id="1" parent="0" />
        <mxCell id="tSHUyGG9h2KgmyE83HBH-1" value="" style="rounded=0;whiteSpace=wrap;html=1;" vertex="1" parent="1">
          <mxGeometry x="40" y="80" width="760" height="560" as="geometry" />
        </mxCell>
        <mxCell id="tSHUyGG9h2KgmyE83HBH-2" value="" style="rounded=0;whiteSpace=wrap;html=1;" vertex="1" parent="1">
          <mxGeometry x="40" y="80" width="760" height="160" as="geometry" />
        </mxCell>
        <mxCell id="tSHUyGG9h2KgmyE83HBH-3" value="" style="ellipse;whiteSpace=wrap;html=1;" vertex="1" parent="1">
          <mxGeometry x="80" y="115" width="90" height="90" as="geometry" />
        </mxCell>
        <mxCell id="tSHUyGG9h2KgmyE83HBH-4" value="" style="rounded=0;whiteSpace=wrap;html=1;" vertex="1" parent="1">
          <mxGeometry x="40" y="240" width="760" height="350" as="geometry" />
        </mxCell>
        <mxCell id="tSHUyGG9h2KgmyE83HBH-5" value="" style="ellipse;whiteSpace=wrap;html=1;" vertex="1" parent="1">
          <mxGeometry x="358" y="606" width="20" height="20" as="geometry" />
        </mxCell>
        <mxCell id="tSHUyGG9h2KgmyE83HBH-6" value="" style="ellipse;whiteSpace=wrap;html=1;" vertex="1" parent="1">
          <mxGeometry x="400" y="606" width="20" height="20" as="geometry" />
        </mxCell>
        <mxCell id="tSHUyGG9h2KgmyE83HBH-7" value="" style="ellipse;whiteSpace=wrap;html=1;" vertex="1" parent="1">
          <mxGeometry x="440" y="606" width="20" height="20" as="geometry" />
        </mxCell>
        <mxCell id="tSHUyGG9h2KgmyE83HBH-8" value="" style="ellipse;whiteSpace=wrap;html=1;" vertex="1" parent="1">
          <mxGeometry x="480" y="606" width="20" height="20" as="geometry" />
        </mxCell>
        <mxCell id="tSHUyGG9h2KgmyE83HBH-9" value="" style="rounded=0;whiteSpace=wrap;html=1;" vertex="1" parent="1">
          <mxGeometry x="40" y="240" width="760" height="30" as="geometry" />
        </mxCell>
        <mxCell id="tSHUyGG9h2KgmyE83HBH-10" value="" style="rounded=0;whiteSpace=wrap;html=1;" vertex="1" parent="1">
          <mxGeometry x="134" y="240" width="100" height="30" as="geometry" />
        </mxCell>
        <mxCell id="tSHUyGG9h2KgmyE83HBH-11" value="" style="rounded=0;whiteSpace=wrap;html=1;" vertex="1" parent="1">
          <mxGeometry x="284" y="240" width="100" height="30" as="geometry" />
        </mxCell>
        <mxCell id="tSHUyGG9h2KgmyE83HBH-12" value="" style="rounded=0;whiteSpace=wrap;html=1;" vertex="1" parent="1">
          <mxGeometry x="444" y="240" width="100" height="30" as="geometry" />
        </mxCell>
        <mxCell id="tSHUyGG9h2KgmyE83HBH-13" value="" style="rounded=0;whiteSpace=wrap;html=1;" vertex="1" parent="1">
          <mxGeometry x="594" y="240" width="100" height="30" as="geometry" />
        </mxCell>
        <mxCell id="tSHUyGG9h2KgmyE83HBH-14" value="Text" style="text;html=1;align=center;verticalAlign=middle;whiteSpace=wrap;rounded=0;" vertex="1" parent="1">
          <mxGeometry x="270" y="145" width="60" height="30" as="geometry" />
        </mxCell>
        <mxCell id="tSHUyGG9h2KgmyE83HBH-15" value="Sobre" style="rounded=0;whiteSpace=wrap;html=1;" vertex="1" parent="1">
          <mxGeometry x="70" y="280" width="700" height="100" as="geometry" />
        </mxCell>
        <mxCell id="tSHUyGG9h2KgmyE83HBH-16" value="Projetos" style="rounded=0;whiteSpace=wrap;html=1;" vertex="1" parent="1">
          <mxGeometry x="70" y="390" width="700" height="90" as="geometry" />
        </mxCell>
        <mxCell id="tSHUyGG9h2KgmyE83HBH-17" value="Contatos" style="rounded=0;whiteSpace=wrap;html=1;" vertex="1" parent="1">
          <mxGeometry x="70" y="490" width="700" height="90" as="geometry" />
        </mxCell>
        <mxCell id="tSHUyGG9h2KgmyE83HBH-22" value="" style="rounded=0;whiteSpace=wrap;html=1;" vertex="1" parent="1">
          <mxGeometry x="70" y="280" width="240" height="100" as="geometry" />
        </mxCell>
        <mxCell id="tSHUyGG9h2KgmyE83HBH-23" value="Text" style="text;html=1;align=center;verticalAlign=middle;whiteSpace=wrap;rounded=0;" vertex="1" parent="1">
          <mxGeometry x="324" y="315" width="60" height="30" as="geometry" />
        </mxCell>
        <mxCell id="tSHUyGG9h2KgmyE83HBH-24" value="" style="rounded=0;whiteSpace=wrap;html=1;" vertex="1" parent="1">
          <mxGeometry x="140" y="430" width="160" height="45" as="geometry" />
        </mxCell>
        <mxCell id="tSHUyGG9h2KgmyE83HBH-25" value="" style="rounded=0;whiteSpace=wrap;html=1;" vertex="1" parent="1">
          <mxGeometry x="330" y="430" width="160" height="45" as="geometry" />
        </mxCell>
        <mxCell id="tSHUyGG9h2KgmyE83HBH-26" value="" style="rounded=0;whiteSpace=wrap;html=1;" vertex="1" parent="1">
          <mxGeometry x="520" y="430" width="160" height="45" as="geometry" />
        </mxCell>
        <mxCell id="tSHUyGG9h2KgmyE83HBH-27" value="1" style="text;html=1;align=center;verticalAlign=middle;whiteSpace=wrap;rounded=0;" vertex="1" parent="1">
          <mxGeometry x="190" y="395" width="60" height="30" as="geometry" />
        </mxCell>
        <mxCell id="tSHUyGG9h2KgmyE83HBH-28" value="2" style="text;html=1;align=center;verticalAlign=middle;whiteSpace=wrap;rounded=0;" vertex="1" parent="1">
          <mxGeometry x="384" y="395" width="60" height="30" as="geometry" />
        </mxCell>
        <mxCell id="tSHUyGG9h2KgmyE83HBH-29" value="3" style="text;html=1;align=center;verticalAlign=middle;whiteSpace=wrap;rounded=0;" vertex="1" parent="1">
          <mxGeometry x="570" y="395" width="60" height="30" as="geometry" />
        </mxCell>
      </root>
    </mxGraphModel>
  </diagram>
</mxfile>
